<svg width="75" height="22" viewBox="0 0 75 22" fill="none" xmlns="http://www.w3.org/2000/svg">
<g clip-path="url(#clip0_9_972)">
<g clip-path="url(#clip1_9_972)">
<path d="M4.75875 11.0156C4.75875 7.51942 6.94125 4.13233 10.8722 4.13233C14.8041 4.13233 16.9866 7.51942 16.9866 11.0165C16.9866 20.273 4.75875 20.2702 4.75875 11.0165V11.0156ZM21.5569 4.12133V0.55275H16.9866V1.94058C15.1191 0.626083 13.0941 0.0119167 10.9031 0H10.8722H10.8413C8.19563 0.0146667 5.79188 0.905667 3.61594 2.85083C2.41875 3.93342 1.50656 5.16542 0.90375 6.52117C0.306562 7.87233 0 9.38575 0 11.0138C0 12.5336 0.27 13.9572 0.799688 15.2451C1.33031 16.533 2.13656 17.7247 3.19969 18.7862C4.26281 19.8495 5.45063 20.658 6.73031 21.1878C7.98281 21.7057 9.36188 21.9743 10.8263 21.9853H10.8731L10.9191 21.9862C12.3834 21.9743 13.7625 21.7057 15.015 21.1878C15.6994 20.9037 16.3584 20.5397 16.9866 20.0997V21.4335H21.5569V4.12133Z" fill="black"/>
</g>
<g clip-path="url(#clip2_9_972)">
<path d="M69.1538 17.7063C68.1994 18.6312 65.8772 18.9942 64.2019 17.9364C63.2081 17.3094 62.5134 16.1828 62.5163 15.0049L58.2422 15.0031C58.7091 13.7793 58.9453 12.4382 58.9453 11.0138C58.9453 10.6947 58.9341 10.3813 58.9106 10.0714C59.1919 10.4161 59.5209 10.7323 59.9025 11.0082C62.2416 12.6885 65.1994 12.5904 67.7822 13.6363C68.3859 13.8811 68.985 14.2037 69.3806 14.7235C70.1869 15.7859 70.1363 16.7539 69.1538 17.7063ZM41.9597 11.0156C41.9597 7.51942 44.1422 4.13142 48.0731 4.13142C52.0041 4.13142 54.1875 7.52033 54.1875 11.0165C54.1875 20.2748 41.9606 20.2712 41.9606 11.0165L41.9597 11.0156ZM36.2072 11.0128C33.8681 9.33258 30.9103 9.43158 28.3275 8.38567C27.7228 8.14092 27.1238 7.81733 26.7291 7.29758C26.07 6.43042 26.1731 5.07283 26.955 4.31567C27.9066 3.3935 30.2288 3.025 31.9069 4.08467C32.9006 4.71258 33.5963 5.83917 33.5925 7.01617L37.9013 7.018C37.4381 8.23992 37.2009 9.58283 37.2009 11.0138C37.2009 11.3465 37.215 11.6756 37.2403 11.9992C36.9432 11.6261 36.5957 11.2943 36.2072 11.0128ZM21.5569 8.75233C21.926 9.65205 22.5425 10.4344 23.3381 11.0128C25.6772 12.6931 28.635 12.5941 31.2178 13.6409C31.8225 13.8857 32.4216 14.2074 32.8163 14.7281C33.4753 15.5952 33.3722 16.9528 32.5894 17.71C31.6359 18.6358 29.3128 18.9988 27.6384 17.941C26.6447 17.3131 25.9491 16.1874 25.9528 15.0095L21.5569 15.0077M21.5569 17.0958C22.02 18.3709 22.8459 19.5158 23.9306 20.328C25.9453 21.8377 28.6256 22.143 31.1334 21.9459C32.6784 21.8249 34.2431 21.5206 35.5819 20.7387C37.2553 19.7606 38.2406 17.9703 38.4094 16.1159C38.9333 17.0981 39.6045 17.9981 40.4006 18.7862C41.4638 19.8495 42.6525 20.658 43.9313 21.1878C45.1838 21.7057 46.5628 21.9743 48.0272 21.9853V21.9862H48.12C49.5844 21.9743 50.9634 21.7057 52.215 21.1878C53.4947 20.658 54.6834 19.8495 55.7456 18.7862C56.5825 17.9587 57.2808 17.0075 57.8147 15.9674C58.1306 17.6834 59.0991 19.2784 60.4941 20.3243C62.5097 21.8341 65.1891 22.1393 67.6969 21.9422C69.645 21.7882 70.7531 21.5481 72.1463 20.7341C75.54 18.7513 76.1025 13.4237 72.7706 11.0082C70.4316 9.32892 67.4738 9.427 64.8909 8.38108C64.2863 8.13633 63.6872 7.81367 63.2925 7.29392C62.6344 6.42583 62.7375 5.06917 63.5194 4.31108C64.4709 3.38892 66.7931 3.02042 68.4713 4.08008C69.465 4.708 70.1597 5.83458 70.1569 7.01158L74.9663 7.01433C74.8866 4.9445 73.8338 2.93333 72.1791 1.69308C70.1625 0.183333 67.4831 -0.121917 64.9763 0.0751667C63.4313 0.197083 61.8656 0.501417 60.5269 1.28333C58.86 2.25683 57.8878 4.015 57.705 5.83917C57.1191 4.75017 56.3241 3.74917 55.3303 2.85083C53.1544 0.90475 50.7506 0.01375 48.1031 0H48.0413C45.3956 0.0146667 42.9919 0.905667 40.8159 2.85083C39.7416 3.8225 38.8997 4.91242 38.3025 6.105C37.9959 4.36975 37.0228 2.75367 35.6138 1.69767C33.6 0.187917 30.9197 -0.117333 28.4119 0.07975C26.8669 0.201667 25.3031 0.504167 23.9625 1.28792C22.83 1.94975 22.0181 2.97367 21.5569 4.13417" fill="black"/>
</g>
</g>
<defs>
<clipPath id="clip0_9_972">
<rect width="75" height="22" fill="white"/>
</clipPath>
<clipPath id="clip1_9_972">
<rect width="21.5625" height="22" fill="white"/>
</clipPath>
<clipPath id="clip2_9_972">
<rect width="53.4375" height="22" fill="white" transform="translate(21.375)"/>
</clipPath>
</defs>
</svg>
